<?xml version="1.0" encoding="UTF-8" standalone="no"?>
<!-- Created with Inkscape (http://www.inkscape.org/) -->

<svg
   width="270"
   height="180"
   viewBox="0 0 270 180.00001"
   version="1.1"
   id="svg5"
   inkscape:version="1.2.2 (732a01da63, 2022-12-09)"
   sodipodi:docname="Eu flag.svg"
   xmlns:inkscape="http://www.inkscape.org/namespaces/inkscape"
   xmlns:sodipodi="http://sodipodi.sourceforge.net/DTD/sodipodi-0.dtd"
   xmlns="http://www.w3.org/2000/svg"
   xmlns:svg="http://www.w3.org/2000/svg">
  <sodipodi:namedview
     id="namedview7"
     pagecolor="#ffffff"
     bordercolor="#000000"
     borderopacity="0.25"
     inkscape:showpageshadow="2"
     inkscape:pageopacity="0.0"
     inkscape:pagecheckerboard="0"
     inkscape:deskcolor="#d1d1d1"
     inkscape:document-units="mm"
     showgrid="true"
     showguides="true"
     inkscape:zoom="3.0296296"
     inkscape:cx="135"
     inkscape:cy="89.779951"
     inkscape:window-width="1920"
     inkscape:window-height="1009"
     inkscape:window-x="-8"
     inkscape:window-y="-8"
     inkscape:window-maximized="1"
     inkscape:current-layer="layer1">
    <inkscape:grid
       type="xygrid"
       id="grid9"
       spacingx="10"
       spacingy="10" />
    <sodipodi:guide
       position="120,90.000005"
       orientation="0,1"
       id="guide63"
       inkscape:locked="false"
       inkscape:label=""
       inkscape:color="rgb(0,134,229)" />
    <sodipodi:guide
       position="135.99999,110.00001"
       orientation="-1,0"
       id="guide65"
       inkscape:locked="false"
       inkscape:label=""
       inkscape:color="rgb(0,134,229)" />
  </sodipodi:namedview>
  <defs
     id="defs2" />
  <g
     inkscape:label="Layer 1"
     inkscape:groupmode="layer"
     id="layer1">
    <rect
       style="fill:#003399;fill-opacity:1"
       id="rect175"
       width="270"
       height="180"
       x="0"
       y="0" />
    <path
       sodipodi:type="star"
       style="fill:#ffcc00;fill-opacity:1"
       id="path281"
       inkscape:flatsided="false"
       sodipodi:sides="5"
       sodipodi:cx="135.99999"
       sodipodi:cy="90"
       sodipodi:r1="10"
       sodipodi:r2="3.8199998"
       sodipodi:arg1="-1.5707963"
       sodipodi:arg2="-0.9424778"
       inkscape:rounded="0"
       inkscape:randomized="0"
       d="m 135.99999,80 2.24534,6.909555 7.26522,2.75e-4 -5.87753,4.270615 2.24482,6.909725 -5.87785,-4.27017 -5.87785,4.27017 2.24481,-6.909725 -5.87753,-4.270615 7.26523,-2.75e-4 z"
       inkscape:transform-center-y="-0.95491505"
       transform="translate(30.000001,-52.000001)" />
    <path
       sodipodi:type="star"
       style="fill:#ffcc00;fill-opacity:1"
       id="path2274"
       inkscape:flatsided="false"
       sodipodi:sides="5"
       sodipodi:cx="135.99998"
       sodipodi:cy="90"
       sodipodi:r1="10"
       sodipodi:r2="3.8199997"
       sodipodi:arg1="-1.5707963"
       sodipodi:arg2="-0.9424778"
       inkscape:rounded="0"
       inkscape:randomized="0"
       d="m 135.99999,80 2.24533,6.909555 7.26523,2.75e-4 -5.87753,4.270615 2.24482,6.909725 -5.87786,-4.27017 -5.87785,4.27017 2.24482,-6.909725 -5.87753,-4.270615 7.26523,-2.75e-4 z"
       inkscape:transform-center-y="-0.95491505"
       transform="translate(0,60.000002)" />
    <path
       sodipodi:type="star"
       style="fill:#ffcc00;fill-opacity:1"
       id="path2276"
       inkscape:flatsided="false"
       sodipodi:sides="5"
       sodipodi:cx="135.99998"
       sodipodi:cy="90"
       sodipodi:r1="10"
       sodipodi:r2="3.8199997"
       sodipodi:arg1="-1.5707963"
       sodipodi:arg2="-0.9424778"
       inkscape:rounded="0"
       inkscape:randomized="0"
       d="m 135.99999,80 2.24533,6.909555 7.26523,2.75e-4 -5.87753,4.270615 2.24482,6.909725 -5.87786,-4.27017 -5.87785,4.27017 2.24482,-6.909725 -5.87753,-4.270615 7.26523,-2.75e-4 z"
       inkscape:transform-center-y="-0.95491505"
       transform="translate(0,-60.000002)" />
    <path
       sodipodi:type="star"
       style="fill:#ffcc00;fill-opacity:1"
       id="path2278"
       inkscape:flatsided="false"
       sodipodi:sides="5"
       sodipodi:cx="135.99998"
       sodipodi:cy="90"
       sodipodi:r1="10"
       sodipodi:r2="3.8199997"
       sodipodi:arg1="-1.5707963"
       sodipodi:arg2="-0.9424778"
       inkscape:rounded="0"
       inkscape:randomized="0"
       d="m 135.99999,80 2.24533,6.909555 7.26523,2.75e-4 -5.87753,4.270615 2.24482,6.909725 -5.87786,-4.27017 -5.87785,4.27017 2.24482,-6.909725 -5.87753,-4.270615 7.26523,-2.75e-4 z"
       inkscape:transform-center-y="-0.95491505"
       transform="translate(60.000002)" />
    <path
       sodipodi:type="star"
       style="fill:#ffcc00;fill-opacity:1"
       id="path2280"
       inkscape:flatsided="false"
       sodipodi:sides="5"
       sodipodi:cx="135.99998"
       sodipodi:cy="90"
       sodipodi:r1="10"
       sodipodi:r2="3.8199997"
       sodipodi:arg1="-1.5707963"
       sodipodi:arg2="-0.9424778"
       inkscape:rounded="0"
       inkscape:randomized="0"
       d="m 135.99999,80 2.24533,6.909555 7.26523,2.75e-4 -5.87753,4.270615 2.24482,6.909725 -5.87786,-4.27017 -5.87785,4.27017 2.24482,-6.909725 -5.87753,-4.270615 7.26523,-2.75e-4 z"
       inkscape:transform-center-y="-0.95491505"
       transform="translate(-60.000002)" />
    <path
       sodipodi:type="star"
       style="fill:#ffcc00;fill-opacity:1"
       id="path2282"
       inkscape:flatsided="false"
       sodipodi:sides="5"
       sodipodi:cx="135.99998"
       sodipodi:cy="90"
       sodipodi:r1="10"
       sodipodi:r2="3.8199997"
       sodipodi:arg1="-1.5707963"
       sodipodi:arg2="-0.9424778"
       inkscape:rounded="0"
       inkscape:randomized="0"
       d="m 135.99999,80 2.24533,6.909555 7.26523,2.75e-4 -5.87753,4.270615 2.24482,6.909725 -5.87786,-4.27017 -5.87785,4.27017 2.24482,-6.909725 -5.87753,-4.270615 7.26523,-2.75e-4 z"
       inkscape:transform-center-y="-0.95491505"
       transform="translate(30.000001,52.000001)" />
    <path
       sodipodi:type="star"
       style="fill:#ffcc00;fill-opacity:1"
       id="path2284"
       inkscape:flatsided="false"
       sodipodi:sides="5"
       sodipodi:cx="135.99998"
       sodipodi:cy="90"
       sodipodi:r1="10"
       sodipodi:r2="3.8199997"
       sodipodi:arg1="-1.5707963"
       sodipodi:arg2="-0.9424778"
       inkscape:rounded="0"
       inkscape:randomized="0"
       d="m 135.99999,80 2.24533,6.909555 7.26523,2.75e-4 -5.87753,4.270615 2.24482,6.909725 -5.87786,-4.27017 -5.87785,4.27017 2.24482,-6.909725 -5.87753,-4.270615 7.26523,-2.75e-4 z"
       inkscape:transform-center-y="-0.95491505"
       transform="translate(52.000001,30.000001)" />
    <path
       sodipodi:type="star"
       style="fill:#ffcc00;fill-opacity:1"
       id="path2286"
       inkscape:flatsided="false"
       sodipodi:sides="5"
       sodipodi:cx="135.99998"
       sodipodi:cy="90"
       sodipodi:r1="10"
       sodipodi:r2="3.8199997"
       sodipodi:arg1="-1.5707963"
       sodipodi:arg2="-0.9424778"
       inkscape:rounded="0"
       inkscape:randomized="0"
       d="m 135.99999,80 2.24533,6.909555 7.26523,2.75e-4 -5.87753,4.270615 2.24482,6.909725 -5.87786,-4.27017 -5.87785,4.27017 2.24482,-6.909725 -5.87753,-4.270615 7.26523,-2.75e-4 z"
       inkscape:transform-center-y="-0.95491505"
       transform="translate(-52.000001,30.000001)" />
    <path
       sodipodi:type="star"
       style="fill:#ffcc00;fill-opacity:1"
       id="path2288"
       inkscape:flatsided="false"
       sodipodi:sides="5"
       sodipodi:cx="135.99998"
       sodipodi:cy="90"
       sodipodi:r1="10"
       sodipodi:r2="3.8199997"
       sodipodi:arg1="-1.5707963"
       sodipodi:arg2="-0.9424778"
       inkscape:rounded="0"
       inkscape:randomized="0"
       d="m 135.99999,80 2.24533,6.909555 7.26523,2.75e-4 -5.87753,4.270615 2.24482,6.909725 -5.87786,-4.27017 -5.87785,4.27017 2.24482,-6.909725 -5.87753,-4.270615 7.26523,-2.75e-4 z"
       inkscape:transform-center-y="-0.95491505"
       transform="translate(-30.000001,52.000001)" />
    <path
       sodipodi:type="star"
       style="fill:#ffcc00;fill-opacity:1"
       id="path2290"
       inkscape:flatsided="false"
       sodipodi:sides="5"
       sodipodi:cx="135.99998"
       sodipodi:cy="90"
       sodipodi:r1="10"
       sodipodi:r2="3.8199997"
       sodipodi:arg1="-1.5707963"
       sodipodi:arg2="-0.9424778"
       inkscape:rounded="0"
       inkscape:randomized="0"
       d="m 135.99999,80 2.24533,6.909555 7.26523,2.75e-4 -5.87753,4.270615 2.24482,6.909725 -5.87786,-4.27017 -5.87785,4.27017 2.24482,-6.909725 -5.87753,-4.270615 7.26523,-2.75e-4 z"
       inkscape:transform-center-y="-0.95491505"
       transform="translate(-30.000001,-52.000001)" />
    <path
       sodipodi:type="star"
       style="fill:#ffcc00;fill-opacity:1"
       id="path2292"
       inkscape:flatsided="false"
       sodipodi:sides="5"
       sodipodi:cx="135.99998"
       sodipodi:cy="90"
       sodipodi:r1="10"
       sodipodi:r2="3.8199997"
       sodipodi:arg1="-1.5707963"
       sodipodi:arg2="-0.9424778"
       inkscape:rounded="0"
       inkscape:randomized="0"
       d="m 135.99999,80 2.24533,6.909555 7.26523,2.75e-4 -5.87753,4.270615 2.24482,6.909725 -5.87786,-4.27017 -5.87785,4.27017 2.24482,-6.909725 -5.87753,-4.270615 7.26523,-2.75e-4 z"
       inkscape:transform-center-y="-0.95491505"
       transform="translate(-52.000001,-30.000001)" />
    <path
       sodipodi:type="star"
       style="fill:#ffcc00;fill-opacity:1"
       id="path2294"
       inkscape:flatsided="false"
       sodipodi:sides="5"
       sodipodi:cx="135.99998"
       sodipodi:cy="90"
       sodipodi:r1="10"
       sodipodi:r2="3.8199997"
       sodipodi:arg1="-1.5707963"
       sodipodi:arg2="-0.9424778"
       inkscape:rounded="0"
       inkscape:randomized="0"
       d="m 135.99999,80 2.24533,6.909555 7.26523,2.75e-4 -5.87753,4.270615 2.24482,6.909725 -5.87786,-4.27017 -5.87785,4.27017 2.24482,-6.909725 -5.87753,-4.270615 7.26523,-2.75e-4 z"
       inkscape:transform-center-y="-0.95491505"
       transform="translate(52.000001,-30.000001)" />
  </g>
</svg>
