<?xml version="1.0" encoding="UTF-8" standalone="no"?>
<!-- Created with Inkscape (http://www.inkscape.org/) -->

<svg
   width="500"
   height="300"
   viewBox="0 0 500 300.00001"
   version="1.1"
   id="svg5"
   xml:space="preserve"
   inkscape:version="1.2.2 (732a01da63, 2022-12-09)"
   sodipodi:docname="hiking club logo.svg"
   xmlns:inkscape="http://www.inkscape.org/namespaces/inkscape"
   xmlns:sodipodi="http://sodipodi.sourceforge.net/DTD/sodipodi-0.dtd"
   xmlns="http://www.w3.org/2000/svg"
   xmlns:svg="http://www.w3.org/2000/svg"><sodipodi:namedview
     id="namedview7"
     pagecolor="#ffffff"
     bordercolor="#000000"
     borderopacity="0.25"
     inkscape:showpageshadow="2"
     inkscape:pageopacity="0.0"
     inkscape:pagecheckerboard="0"
     inkscape:deskcolor="#d1d1d1"
     inkscape:document-units="mm"
     showgrid="false"
     inkscape:zoom="2.3249671"
     inkscape:cx="164.3034"
     inkscape:cy="278.49857"
     inkscape:window-width="958"
     inkscape:window-height="1000"
     inkscape:window-x="953"
     inkscape:window-y="0"
     inkscape:window-maximized="0"
     inkscape:current-layer="layer1" /><defs
     id="defs2" /><g
     inkscape:label="Layer 1"
     inkscape:groupmode="layer"
     id="layer1"><path
       id="rect603"
       style="fill:#000000;stroke:#000000;stroke-width:3;stroke-dasharray:none"
       d="m 235.875,114.42383 c -4.00385,0.35793 -7.5562,3.35301 -11.91992,1.89844 -1.78946,-0.59648 -4.34925,-0.44153 -6.98047,0.43554 -4.46043,1.48681 -9.55273,4.89649 -9.55273,4.89649 l -21.32813,11.4043 v 59.04101 h 3.09375 c 2.67188,0 4.80469,0.46875 6.39844,1.40625 1.59375,0.89062 2.64844,1.94532 3.16406,3.16407 0.51563,1.21874 0.77344,4.26563 0.77344,9.14062 v 27 h -33.67969 v -27 c 0,-4.78124 0.25781,-7.73438 0.77344,-8.85937 0.70313,-1.59375 1.66406,-2.71876 2.88281,-3.375 1.6875,-0.98437 3.91406,-1.47657 6.67969,-1.47657 h 3.16406 v -55.43164 l -1.83203,0.98047 c 0,0 -30.70062,14.02121 -40.2207,18.78125 -1.25387,0.62693 -4.48172,1.7715 -7.79883,2.90234 v 32.76758 h 3.16406 c 2.67188,0 4.78126,0.46875 6.32813,1.40625 1.59375,0.89062 2.64843,1.94532 3.16406,3.16407 0.51563,1.21874 0.77344,4.26563 0.77344,9.14062 v 62.71875 c 0,4.78125 -0.25781,7.73438 -0.77344,8.85938 -0.65625,1.59374 -1.59375,2.71875 -2.8125,3.375 -1.6875,0.98437 -3.91406,1.47656 -6.67969,1.47656 h -3.16406 v 2.60156 h 49.85156 v -2.60156 h -3.16406 c -2.67187,0 -4.80469,-0.44531 -6.39844,-1.33594 -1.54687,-0.9375 -2.60156,-2.01562 -3.16406,-3.23437 -0.51563,-1.21875 -0.77344,-4.26563 -0.77344,-9.14063 v -29.53125 h 33.67969 v 29.53125 c 0,4.78125 -0.25781,7.73438 -0.77344,8.85938 -0.70312,1.59374 -1.66406,2.71875 -2.88281,3.375 -1.64063,0.98437 -3.86719,1.47656 -6.67969,1.47656 h -3.09375 v 2.60156 H 235.875 v -2.60156 h -3.09375 c -2.67186,0 -4.80469,-0.44531 -6.39843,-1.33594 -1.59375,-0.9375 -2.64844,-2.01562 -3.16407,-3.23437 -0.51562,-1.21875 -0.77343,-4.26563 -0.77343,-9.14063 v -62.71875 c 0,-4.78124 0.25781,-7.73438 0.77343,-8.85937 0.70313,-1.59375 1.66407,-2.71876 2.88282,-3.375 1.64061,-0.98437 3.86719,-1.47657 6.67968,-1.47657 h 3.09375 z m 5.48438,1.91406 v 75.76172 h 3.02344 c 2.67186,0 4.80469,0.46875 6.39843,1.40625 1.59375,0.89062 2.64844,1.94532 3.16407,3.16407 0.51562,1.17186 0.77343,4.17187 0.77343,9 v 60.32812 c 0,4.26563 -0.0469,6.65625 -0.14062,7.17188 -0.51563,2.20312 -1.24219,3.91406 -2.17969,5.13281 -0.9375,1.21875 -2.32031,2.20312 -4.14844,2.95312 -1.82811,0.70311 -3.79687,1.03128 -5.90625,0.98438 h -0.98437 v 2.60156 h 32.625 v -2.60156 c -4.35937,0 -7.57032,-0.72656 -9.63281,-2.17969 -2.01563,-1.5 -3.32813,-3.42188 -3.9375,-5.76562 -0.23438,-1.07813 -0.35157,-3.96095 -0.35157,-8.64844 v -67.14844 l 37.125,86.34375 h 1.6875 l 36.56251,-86.97656 v 70.66406 c 0,4.78125 -0.25782,7.73438 -0.77344,8.85938 -0.70313,1.59374 -1.64063,2.71875 -2.8125,3.375 -1.6875,0.98437 -3.9375,1.47656 -6.75,1.47656 h -3.09375 v 2.60156 h 49.78125 v -2.60156 h -3.09375 c -2.67188,0 -4.80469,-0.44531 -6.39844,-1.33594 -1.59375,-0.9375 -2.64844,-2.01562 -3.16406,-3.23437 -0.51563,-1.21875 -0.77344,-4.26563 -0.77344,-9.14063 v -62.85937 c 0,-4.73437 0.25781,-7.66407 0.77344,-8.78907 0.70312,-1.54688 1.64062,-2.64844 2.8125,-3.30468 1.6875,-0.98437 3.9375,-1.47657 6.75,-1.47657 h 3.09375 v -17.58984 c -0.26365,-0.0518 -0.5285,-0.092 -0.79102,-0.14453 -2.82913,-0.56582 -19.50594,-3.3915 -22.45703,-4.65625 -5.20094,-2.22898 -10.38912,-4.32779 -15.5625,-6.38086 l -0.002,26.16992 -25.875,62.85938 -26.78907,-62.85938 -0.0391,-49.37695 c -1.98017,-1.12747 -3.97718,-2.28231 -5.83789,-3.36329 -5.31349,-3.08685 -13.26733,-7.28908 -17.5293,-10.23632 -2.68391,-1.85599 -10.26449,-7.25231 -15.54687,-10.1836 z m 44.3457,26.74024 v 47.28125 h 41.81836 v -29.18555 c -13.37259,-5.26379 -26.65608,-10.43644 -39.81054,-17.01367 -0.62202,-0.31101 -1.35036,-0.73545 -2.00782,-1.08203 z m -161.80494,18.67578 c -0.74054,0.23723 -2.66992,0.86914 -2.66992,0.86914 0,0 -11.53028,5.27637 -18.24805,7.51562 -13.308534,4.43618 -28.855868,8.62429 -42.769528,12.25196 -5.55328,1.44789 -11.121363,2.66355 -16.75,3.7207 v 5.98828 h 3.164063 c 2.671872,0 4.781251,0.46875 6.328125,1.40625 1.593748,0.89062 2.648438,1.94532 3.164062,3.16407 0.515625,1.21874 0.773438,4.26563 0.773438,9.14062 v 62.71875 c 0,4.78125 -0.257813,7.73438 -0.773438,8.85938 -0.656249,1.59374 -1.593751,2.71875 -2.8125,3.375 -1.687498,0.98437 -3.914065,1.47656 -6.679687,1.47656 h -3.164063 v 2.60156 h 49.851564 v -2.60156 h -3.164063 c -2.671872,0 -4.804689,-0.44531 -6.398438,-1.33594 -1.546873,-0.9375 -2.601563,-2.01562 -3.164062,-3.23437 -0.515625,-1.21875 -0.773438,-4.26563 -0.773438,-9.14063 v -29.17969 h 2.742188 c 5.01562,0 9.492192,1.45313 13.429688,4.35938 3.98437,2.85937 6.421869,8.8125 7.312499,17.85937 h 2.46093 v -47.88281 h -2.46093 c -0.5625,5.10938 -1.78125,9.16407 -3.656249,12.16406 -1.828124,3 -4.078128,5.13282 -6.75,6.39844 -2.671873,1.26563 -6.117192,1.89844 -10.335938,1.89844 h -2.742188 v -39.16406 h 8.859375 c 7.593743,0 12.79688,0.35155 15.60937,1.05468 5.10938,1.26562 9.00001,3.44532 11.67188,6.53907 2.71874,3.09374 4.40625,7.85156 5.0625,14.27343 h 2.88281 z m 253.20338,13.7207 -0.34765,63.45313 c -0.0474,8.62486 2.13281,16.75781 6.39843,24.39844 4.3125,7.64062 10.40626,13.50001 18.28125,17.57812 7.92187,4.07813 16.96877,6.11719 27.14063,6.11719 7.73437,0 14.48439,-1.2422 20.25,-3.72656 5.81249,-2.53125 11.39063,-6.58595 16.73437,-12.16407 v -8.22656 c -5.53124,6.42187 -10.80469,10.94532 -15.82031,13.57031 -4.96874,2.625 -10.45313,3.9375 -16.45312,3.9375 -7.3125,0 -13.26563,-1.78125 -17.85938,-5.34375 -4.59374,-3.60937 -7.96875,-8.90626 -10.125,-15.89062 -2.15625,-7.03124 -3.23437,-14.81251 -3.23437,-23.34375 0,-8.67186 1.47656,-16.54688 4.42968,-23.625 2.29687,-5.53125 5.9297,-10.00781 10.89844,-13.42969 4.96875,-3.42187 10.42969,-5.13281 16.38281,-5.13281 7.125,0 13.50001,2.29688 19.125,6.89062 5.625,4.59375 9.46876,11.20314 11.53125,19.82813 h 2.74219 v -27.55078 c -5.9201,-0.50269 -12.25195,-2.24024 -12.25195,-2.24024 l -12.71094,-3.22656 c 0,0 -15.12203,-2.17167 -22.50586,-3.64844 -6.7958,-1.35917 -20.4668,-4.86719 -20.4668,-4.86719 0,0 -10.76155,-1.34067 -22.13867,-3.35742 z"
       sodipodi:nodetypes="csscccscssccsccscccsccscsssccsccccsccsccsccsccccscsssccsccccsccsscsccccccccsccccsccsccccscsssccsccsscccccsscccccscccssccscsssccsccccsccscsccccccssccscccccccccsccccsccscssscccccscc" /><path
       id="path754"
       style="fill:#ffffff;stroke:#000000;stroke-width:3.00000005;stroke-dasharray:none"
       d="m 235.875,114.42383 c -4.00384,0.35793 -7.5562,3.35301 -11.91992,1.89844 -1.78946,-0.59648 -4.34925,-0.44152 -6.98047,0.43554 -4.46042,1.48681 -9.55273,4.89649 -9.55273,4.89649 l -21.32813,11.4043 v 6.67382 c 0.90285,-0.59663 1.78731,-1.16025 2.77539,-1.65429 0.2785,-0.13925 0.70343,-1.12079 0.91211,-0.91211 1.5873,1.5873 -1.67605,6.464 -0.91211,6.08203 3.89284,-1.94642 7.69749,-4.32176 11.25196,-6.69141 1.08963,-0.72642 8.48505,-3.82493 8.21289,-2.73633 -0.44302,1.7721 -4.69756,8.38252 -3.04297,10.03711 1.78287,1.78287 14.50345,-7.76494 15.20703,-8.82031 1.37707,-2.0656 3.11891,-5.66493 5.17188,-6.6914 0.78234,-0.39118 5.76602,7.17484 10.20507,10.21875 v -8.09766 c -0.56137,-0.17259 -1.12184,-0.33669 -1.38671,-0.60156 -0.20348,-0.20348 -1.03443,-1.70192 -0.60743,-2.12891 0.2264,-0.2264 0.97688,0.11451 1.99414,0.75195 z m 5.48438,1.91406 v 16.16602 c 3.08416,2.40157 6.01432,4.74284 6.20703,4.35742 1.11097,-2.22194 -2.34441,-7.33792 -3.04102,-9.42773 -0.0962,-0.28853 -0.30413,-0.91211 0,-0.91211 3.33788,0 13.24201,14.1291 15.20704,12.16406 0.96038,-0.96038 -3.64874,-8.81865 -4.5625,-9.73242 -0.60828,-0.60827 -2.43249,-1.21594 -1.82422,-1.82422 0.78578,-0.78578 8.50873,6.79395 9.27521,7.1477 5.66001,2.61232 6.61145,1.02209 11.79879,4.91259 0.62576,0.46932 5.15954,2.26377 5.85569,2.79322 l -0.002,-1.86132 c -1.98017,-1.12747 -3.97718,-2.28231 -5.83789,-3.36329 -5.31348,-3.08684 -13.26733,-7.28909 -17.5293,-10.23632 -2.6839,-1.85599 -10.2645,-7.25231 -15.54687,-10.1836 z m 0,20.2461 v 5.44922 c 0.18457,0.0617 0.34402,0.0837 0.42969,-0.002 1.27425,-1.27426 0.68924,-3.38941 -0.42969,-5.44726 z m -62.01563,0.084 -1.83203,0.98047 c 0,0 -5.68122,2.6154 -9.55078,4.39258 2.71972,-0.56785 5.2938,-1.80929 7.83008,-2.44336 0.4549,-0.11373 1.99444,-0.91572 3.55273,-1.7461 z m 0,1.82031 c -5.29745,3.63615 -13.89453,9.71667 -13.89453,10.8418 0,1.8111 6.99197,-2.12283 7.30078,-2.43164 1.67884,-1.67883 4.14657,-2.76466 6.59375,-3.76758 z"
       sodipodi:nodetypes="csscccssssssssccssccccsssssscsccsscccscccsscccsscccs" /></g></svg>
