<?xml version="1.0" encoding="UTF-8" standalone="no"?>
<!-- Generator: Adobe Illustrator 16.0.3, SVG Export Plug-In . SVG Version: 6.00 Build 0)  -->

<svg
   version="1.1"
   id="Superman_shield"
   x="0px"
   y="0px"
   width="882.69434"
   height="669.07446"
   viewBox="0 0 882.69434 669.07446"
   enable-background="new 0 0 720 540"
   xml:space="preserve"
   sodipodi:docname="Superman_shield.svg"
   inkscape:version="1.2.2 (732a01da63, 2022-12-09)"
   inkscape:export-filename="Superman_shield.png"
   inkscape:export-xdpi="96"
   inkscape:export-ydpi="96"
   xmlns:inkscape="http://www.inkscape.org/namespaces/inkscape"
   xmlns:sodipodi="http://sodipodi.sourceforge.net/DTD/sodipodi-0.dtd"
   xmlns="http://www.w3.org/2000/svg"
   xmlns:svg="http://www.w3.org/2000/svg"><defs
   id="defs327" /><sodipodi:namedview
   id="namedview325"
   pagecolor="#ffffff"
   bordercolor="#000000"
   borderopacity="0.25"
   inkscape:showpageshadow="2"
   inkscape:pageopacity="0.0"
   inkscape:pagecheckerboard="0"
   inkscape:deskcolor="#d1d1d1"
   showgrid="false"
   inkscape:zoom="1.2046492"
   inkscape:cx="363.59133"
   inkscape:cy="334.95229"
   inkscape:window-width="1350"
   inkscape:window-height="1032"
   inkscape:window-x="78"
   inkscape:window-y="0"
   inkscape:window-maximized="0"
   inkscape:current-layer="g13137"
   showguides="false"><sodipodi:guide
     position="1359.6316,734.14934"
     orientation="1,0"
     id="guide13373"
     inkscape:locked="false" /></sodipodi:namedview>






<g
   aria-label="Y"
   id="g13058"
   style="font-size:460px;font-family:'Georgia Pro';-inkscape-font-specification:'Georgia Pro';display:none;fill:#d40000;stroke:#000000;stroke-width:11"
   inkscape:label="Black and White"
   transform="translate(81.318945,140.78119)"><path
     id="path676"
     style="color:#000000;font-size:460px;font-family:'Georgia Pro';-inkscape-font-specification:'Georgia Pro';display:inline;fill:#000000;stroke:#000000;stroke-width:11;-inkscape-stroke:none"
     d="M 359.95148,-132.33477 C 316.36856,-81.517002 272.80607,-30.681045 229.2425,20.153514 H -68.736018 C -19.091562,78.012787 30.551765,135.8738 80.195623,193.73359 30.41393,251.67876 -19.335696,309.65225 -69.292659,367.44648 l 298.480469,-0.0625 c 43.60402,50.82087 87.20847,101.64204 130.8125,152.46289 43.60922,-50.82715 87.19919,-101.67167 130.78906,-152.51562 l 298.00196,-0.0625 C 739.15158,309.43918 689.51251,251.6086 639.87336,193.77851 689.65058,135.86288 739.3956,77.918265 789.34797,20.153514 H 490.84211 C 447.2123,-30.676132 403.58131,-81.505136 359.95148,-132.33477 Z"
     inkscape:label="Star" /><polygon
     id="red_shield"
     fill="#C80000"
     stroke="#000000"
     stroke-width="11"
     points="138.287,20.154 581.744,20.154 695,129.4 360.001,519.846 25,129.4 "
     style="display:inline;fill:#000000"
     inkscape:label="Shield" /><path
     style="display:none;fill:#ffffff;stroke:#000000;stroke-width:11;stroke-dasharray:none"
     d="M 645.172,132.437 360.001,464.431 74.796,132.437 154.56,54.921 h 412.2705 z"
     id="path631"
     sodipodi:nodetypes="cccccc"
     inkscape:label="inner_diamond" /><g
     inkscape:groupmode="layer"
     id="layer4"
     inkscape:label="י"
     style="display:none"><path
       style="display:inline;fill:#ffffff;stroke:#000000;stroke-width:11;stroke-dasharray:none"
       d="M 645.172,132.437 360.001,464.431 74.796,132.437 154.56,54.921 h 412.2705 z"
       id="path13025"
       sodipodi:nodetypes="cccccc"
       inkscape:label="inner_diamond" /><text
       xml:space="preserve"
       style="font-style:normal;font-variant:normal;font-weight:normal;font-stretch:normal;font-size:460px;font-family:'Guttman Stam1';-inkscape-font-specification:'Guttman Stam1';fill:#000000;stroke:#000000;stroke-width:11;stroke-dasharray:none"
       x="291.84464"
       y="395.83411"
       id="text12973"><tspan
         sodipodi:role="line"
         id="tspan12971"
         x="291.84464"
         y="395.83411"
         style="font-style:normal;font-variant:normal;font-weight:normal;font-stretch:normal;font-family:'Guttman Stam1';-inkscape-font-specification:'Guttman Stam1';fill:#000000">י</tspan></text></g><g
     aria-label="Y"
     id="text12687"
     style="font-size:460px;font-family:'Georgia Pro';-inkscape-font-specification:'Georgia Pro';display:none;fill:#d40000;stroke:#000000;stroke-width:11"
     inkscape:label="Y"><path
       style="font-size:460px;font-family:'Georgia Pro';-inkscape-font-specification:'Georgia Pro';display:inline;fill:#ffffff;stroke:#000000;stroke-width:11"
       d="m 645.172,132.437 -78.3415,-77.516 -52.17172,-10e-6 v 15.947266 c -8.53515,0.898437 -16.69596,3.668619 -24.48242,8.310546 -7.63672,4.492188 -16.54622,13.850911 -26.72851,28.076168 -10.18229,14.22526 -24.70703,37.50977 -43.57422,69.85352 -12.47753,23.41343 -36.76529,58.53762 -36.83594,74.87583 v 74.71401 c 0,8.53516 2.84505,15.27344 8.53516,20.21485 5.83984,4.94141 81.20263,-10.35215 64.69941,5.43952 z M 434.02402,373.64169 H 285.108 L 360.001,464.431 Z M 263.03201,351.55387 c -16.08973,-16.09836 57.93862,2.02272 63.62873,-1.27155 5.6901,-3.29427 8.53515,-10.4069 8.53515,-21.33789 V 251.6788 c 0,-5.09115 -12.65299,-31.29557 -37.95898,-78.61328 C 271.93092,125.59807 255.16008,97.072683 246.92441,87.489349 238.83847,77.756276 226.41008,72.215912 209.63925,70.868256 V 54.92099 L 154.56,54.921 74.796,132.437 Z M 329.51128,54.92099 v 15.947266 c -27.85156,1.347656 -41.77734,4.941406 -41.77734,10.78125 0,4.192708 23.28451,48.440754 69.85352,132.744144 48.51562,-77.86459 72.77343,-120.16602 72.77343,-126.904301 0,-4.492187 -2.69531,-8.011067 -8.08593,-10.55664 -5.24089,-2.695313 -16.69597,-4.716797 -34.36524,-6.064453 V 54.92099 Z"
       id="path12901"
       sodipodi:nodetypes="cccccsccsccccccccssscccccccccscscccc" /></g><g
     inkscape:groupmode="layer"
     id="layer3"
     inkscape:label="Torah"
     style="display:none"><path
       style="display:inline;fill:#ffffff;stroke:#000000;stroke-width:11;stroke-dasharray:none"
       d="M 645.172,132.437 360.001,464.431 74.796,132.437 154.56,54.921 h 412.2705 z"
       id="path11952"
       sodipodi:nodetypes="cccccc"
       inkscape:label="inner_diamond" /><path
       d="M 488.23313,101.23855 H 414.48056 V 82.659329 H 443.8481 V 57.296458 h 15.01749 v 25.362871 h 29.36754 z m -184.88198,0 H 229.59858 V 82.659329 h 29.36754 V 57.296458 h 14.68377 v 25.362871 h 29.70126 z M 486.56452,276.55181 H 231.26719 V 110.02453 h 255.29733 z m 1.66861,30.36869 h -29.36754 v 26.69777 H 443.8481 V 306.9205 h -29.36754 v -22.00624 h 73.75257 z m -184.88198,0 h -29.70126 v 26.69777 H 258.96612 V 306.9205 h -29.36754 v -22.00624 h 73.75257 z"
       style="font-size:313.872px;font-family:'Guttman Logo1';-inkscape-font-specification:'Guttman Logo1';display:inline;fill:#000000;stroke:#000000;stroke-width:11.6957;stroke-dasharray:none"
       id="path3645"
       sodipodi:nodetypes="ccccccccccccccccccccccccccccccccccccccccc" /><path
       id="path5726"
       style="display:inline;fill:#000000;stroke:#000000;stroke-width:11;stroke-dasharray:none"
       d="m 238.5536,111.87454 v 81.52867 83.24383 h 27.11898 29.47225 v -83.24383 -81.52867 h -29.47225 z m 62.72307,0 v 81.52867 83.24383 h 57.83249 56.4079 v -83.24383 -81.52867 h -56.4079 z m 121.29219,0 v 81.52867 83.24383 h 29.47432 27.59272 v -83.24383 -81.52867 h -27.59272 z"
       sodipodi:nodetypes="ccccccccccccccccccccccccccc" /></g><g
     inkscape:groupmode="layer"
     id="layer2"
     inkscape:label="J"
     style="display:none"><path
       style="display:inline;fill:#ffffff;stroke:#000000;stroke-width:11;stroke-dasharray:none"
       d="m 360.001,464.431 38.136,-44.3915 c -25.62655,8.70968 -55.0951,13.18519 -67.65713,10.00281 z"
       id="path3302"
       sodipodi:nodetypes="cccc" /><path
       style="display:inline;fill:#ffffff;stroke:#000000;stroke-width:11;stroke-dasharray:none"
       d="m 74.796,132.437 79.764,-77.516 179.77845,1.03 -0.0926,59.884 40.99712,-0.20059 v 0 c 21.75447,-20.6057 35.78694,0.2369 35.78694,0.2369 0,0 2.04934,208.36199 1.15218,210.56139 -13.71531,33.62317 -61.25512,44.41062 -95.41675,39.83745 -31.65807,-4.23802 -66.2801,-28.32523 -75.60032,-58.87565 -5.66735,-18.57683 -0.62583,-50.42648 18.15799,-55.36466 16.22656,-4.26589 37.17932,33.92919 37.17932,33.92919 l 47.43578,0.18235 v -85.27393 l -175.75902,-2.36872 -0.57147,40.97277 z"
       id="path3425"
       sodipodi:nodetypes="cccccccsaaacccccc" /><path
       style="display:inline;fill:#ffffff;stroke:#000000;stroke-width:11;stroke-dasharray:none"
       d="m 645.172,132.437 -58.82799,-58.208111 -0.7857,47.036621 h -37.81584 c 0,0 -13.57128,-12.54563 -33.49876,-15.40943 l 1.26959,177.52864 z"
       id="path3427"
       sodipodi:nodetypes="ccccccc" /></g><g
     inkscape:groupmode="layer"
     id="layer1"
     inkscape:label="S"
     style="display:none"><path
       id="top_inside"
       fill="#ffeb00"
       stroke="#000000"
       stroke-width="11"
       d="M 569.873,222.526 645.172,132.437 590.58,78.421 v 60.788 H 477.813 C 475.229,80.425 415.686,55.163 346.398,55.951 c -63.672,0.73 -116.808,16.763 -121.787,52.196 -4.858,20.009 17.186,53.743 150.632,47.002 106.21,-2.336 171.31,20.982 194.63,67.377 z"
       style="display:inline;fill:#ffffff"
       inkscape:label="top_inside" /><path
       id="top_right"
       fill="#ffeb00"
       stroke="#000000"
       stroke-width="11"
       d="m 477.08,54.891 h 33.736 c 0.727,12.327 -5.225,20.252 -8.926,24.169 -7.835,-11.114 -20.255,-21.558 -24.81,-24.169 z"
       style="display:inline;fill:#ffffff" /><path
       id="bottom_inside"
       fill="#ffeb00"
       stroke="#000000"
       stroke-width="11"
       d="m 167.60765,239.4715 c 152.031,27.751 286.15435,15.3335 323.89635,41.1115 7.986,6.224 6.225,15.483 0.244,23.896 -21.104,25.564 -75.211,22.377 -139.187,21.343 -23.047,-39.653 -95.92635,-47.4845 -127.47535,-18.4275 -21.64337,-22.12228 -37.93871,-42.95937 -57.478,-67.923 z"
       style="display:inline;fill:#ffffff"
       sodipodi:nodetypes="cccccc" /><path
       id="top_x0020_left"
       fill="#ffeb00"
       stroke="#000000"
       stroke-width="11"
       d="M 114.359,93.997 154.56,54.921 h 38.926 c -39.715,31.789 -67.589,75.635 -79.794,123.486 l -38.896,-45.97 39.535,-38.44 z"
       style="display:inline;fill:#ffffff" /><path
       id="bottom"
       fill="#ffeb00"
       stroke="#000000"
       stroke-width="11"
       d="m 280.357,371.702 79.644,92.729 76.272,-88.783 c -38.713,9.079 -81.739,13.572 -155.916,-3.946 z"
       style="display:inline;fill:#ffffff" /></g></g><g
   aria-label="Y"
   id="g13126"
   style="font-size:460px;font-family:'Georgia Pro';-inkscape-font-specification:'Georgia Pro';display:none;fill:#d40000;stroke:#000000;stroke-width:11"
   inkscape:label="Blue"
   transform="translate(81.318945,140.78119)"><path
     id="path673"
     style="color:#000000;font-size:460px;font-family:'Georgia Pro';-inkscape-font-specification:'Georgia Pro';display:inline;fill:#0000ff;stroke:#000000;stroke-width:11;-inkscape-stroke:none"
     d="M 359.95148,-132.33477 C 316.36856,-81.517002 272.80607,-30.681045 229.2425,20.153514 H -68.736018 C -19.091562,78.012787 30.551765,135.8738 80.195623,193.73359 30.41393,251.67876 -19.335696,309.65225 -69.292659,367.44648 l 298.480469,-0.0625 c 43.60402,50.82087 87.20847,101.64204 130.8125,152.46289 43.60922,-50.82715 87.19919,-101.67167 130.78906,-152.51562 l 298.00196,-0.0625 C 739.15158,309.43918 689.51251,251.6086 639.87336,193.77851 689.65058,135.86288 739.3956,77.918265 789.34797,20.153514 H 490.84211 C 447.2123,-30.676132 403.58131,-81.505136 359.95148,-132.33477 Z"
     inkscape:label="Star" /><path
     style="display:none;fill:#ffffff;stroke:#000000;stroke-width:11;stroke-dasharray:none"
     d="M 645.172,132.437 360.001,464.431 74.796,132.437 154.56,54.921 h 412.2705 z"
     id="path13122"
     sodipodi:nodetypes="cccccc"
     inkscape:label="inner_diamond" /><polygon
     id="polygon13124"
     fill="#C80000"
     stroke="#000000"
     stroke-width="11"
     points="25,129.4 138.287,20.154 581.744,20.154 695,129.4 360.001,519.846 "
     style="display:none;fill:#0000ff" /><g
     inkscape:groupmode="layer"
     id="g13088"
     inkscape:label="י"
     style="display:inline"><path
       style="display:inline;fill:#ffffff;stroke:#000000;stroke-width:11;stroke-dasharray:none"
       d="M 645.172,132.437 360.001,464.431 74.796,132.437 154.56,54.921 h 412.2705 z"
       id="path13082"
       sodipodi:nodetypes="cccccc"
       inkscape:label="inner_diamond" /><text
       xml:space="preserve"
       style="font-style:normal;font-variant:normal;font-weight:normal;font-stretch:normal;font-size:460px;font-family:'Guttman Stam1';-inkscape-font-specification:'Guttman Stam1';fill:#0000ff;stroke:#000000;stroke-width:11;stroke-dasharray:none"
       x="291.84464"
       y="395.83411"
       id="text13086"><tspan
         sodipodi:role="line"
         id="tspan13084"
         x="291.84464"
         y="395.83411"
         style="font-style:normal;font-variant:normal;font-weight:normal;font-stretch:normal;font-family:'Guttman Stam1';-inkscape-font-specification:'Guttman Stam1';fill:#0000ff">י</tspan></text></g><g
     aria-label="Y"
     id="g13092"
     style="font-size:460px;font-family:'Georgia Pro';-inkscape-font-specification:'Georgia Pro';display:none;fill:#d40000;stroke:#000000;stroke-width:11"
     inkscape:label="Y"><path
       style="display:inline;fill:#ffffff"
       d="m 645.172,132.437 -78.3415,-77.516 -52.17172,-10e-6 v 15.947266 c -8.53515,0.898437 -16.69596,3.668619 -24.48242,8.310546 -7.63672,4.492188 -16.54622,13.850911 -26.72851,28.076168 -10.18229,14.22526 -24.70703,37.50977 -43.57422,69.85352 -12.47753,23.41343 -36.76529,58.53762 -36.83594,74.87583 v 74.71401 c 0,8.53516 2.84505,15.27344 8.53516,20.21485 5.83984,4.94141 81.20263,-10.35215 64.69941,5.43952 z M 434.02402,373.64169 H 285.108 L 360.001,464.431 Z M 263.03201,351.55387 c -16.08973,-16.09836 57.93862,2.02272 63.62873,-1.27155 5.6901,-3.29427 8.53515,-10.4069 8.53515,-21.33789 V 251.6788 c 0,-5.09115 -12.65299,-31.29557 -37.95898,-78.61328 C 271.93092,125.59807 255.16008,97.072683 246.92441,87.489349 238.83847,77.756276 226.41008,72.215912 209.63925,70.868256 V 54.92099 L 154.56,54.921 74.796,132.437 Z M 329.51128,54.92099 v 15.947266 c -27.85156,1.347656 -41.77734,4.941406 -41.77734,10.78125 0,4.192708 23.28451,48.440754 69.85352,132.744144 48.51562,-77.86459 72.77343,-120.16602 72.77343,-126.904301 0,-4.492187 -2.69531,-8.011067 -8.08593,-10.55664 -5.24089,-2.695313 -16.69597,-4.716797 -34.36524,-6.064453 V 54.92099 Z"
       id="path13090"
       sodipodi:nodetypes="cccccsccsccccccccssscccccccccscscccc" /></g><g
     inkscape:groupmode="layer"
     id="g13100"
     inkscape:label="Torah"
     style="display:none"><path
       style="display:inline;fill:#ffffff;stroke:#000000;stroke-width:11;stroke-dasharray:none"
       d="M 645.172,132.437 360.001,464.431 74.796,132.437 154.56,54.921 h 412.2705 z"
       id="path13094"
       sodipodi:nodetypes="cccccc"
       inkscape:label="inner_diamond" /><path
       d="M 488.23313,101.23855 H 414.48056 V 82.659329 H 443.8481 V 57.296458 h 15.01749 v 25.362871 h 29.36754 z m -184.88198,0 H 229.59858 V 82.659329 h 29.36754 V 57.296458 h 14.68377 v 25.362871 h 29.70126 z M 486.56452,276.55181 H 231.26719 V 110.02453 h 255.29733 z m 1.66861,30.36869 h -29.36754 v 26.69777 H 443.8481 V 306.9205 h -29.36754 v -22.00624 h 73.75257 z m -184.88198,0 h -29.70126 v 26.69777 H 258.96612 V 306.9205 h -29.36754 v -22.00624 h 73.75257 z"
       style="font-size:313.872px;font-family:'Guttman Logo1';-inkscape-font-specification:'Guttman Logo1';display:inline;fill:#0000ff;stroke:#000000;stroke-width:11.6957;stroke-dasharray:none"
       id="path13096"
       sodipodi:nodetypes="ccccccccccccccccccccccccccccccccccccccccc" /><path
       id="path13098"
       style="display:inline;fill:#0000ff;stroke:#000000;stroke-width:11;stroke-dasharray:none"
       d="m 238.5536,111.87454 v 81.52867 83.24383 h 27.11898 29.47225 v -83.24383 -81.52867 h -29.47225 z m 62.72307,0 v 81.52867 83.24383 h 57.83249 56.4079 v -83.24383 -81.52867 h -56.4079 z m 121.29219,0 v 81.52867 83.24383 h 29.47432 27.59272 v -83.24383 -81.52867 h -27.59272 z"
       sodipodi:nodetypes="ccccccccccccccccccccccccccc" /></g><g
     inkscape:groupmode="layer"
     id="g13108"
     inkscape:label="J"
     style="display:none"><path
       style="display:inline;fill:#ffffff;stroke:#000000;stroke-width:11;stroke-dasharray:none"
       d="m 360.001,464.431 38.136,-44.3915 c -25.62655,8.70968 -55.0951,13.18519 -67.65713,10.00281 z"
       id="path13102"
       sodipodi:nodetypes="cccc" /><path
       style="display:inline;fill:#ffffff;stroke:#000000;stroke-width:11;stroke-dasharray:none"
       d="m 74.796,132.437 79.764,-77.516 179.77845,1.03 -0.0926,59.884 40.99712,-0.20059 v 0 c 21.75447,-20.6057 35.78694,0.2369 35.78694,0.2369 0,0 2.04934,208.36199 1.15218,210.56139 -13.71531,33.62317 -61.25512,44.41062 -95.41675,39.83745 -31.65807,-4.23802 -66.2801,-28.32523 -75.60032,-58.87565 -5.66735,-18.57683 -0.62583,-50.42648 18.15799,-55.36466 16.22656,-4.26589 37.17932,33.92919 37.17932,33.92919 l 47.43578,0.18235 v -85.27393 l -175.75902,-2.36872 -0.57147,40.97277 z"
       id="path13104"
       sodipodi:nodetypes="cccccccsaaacccccc" /><path
       style="display:inline;fill:#ffffff;stroke:#000000;stroke-width:11;stroke-dasharray:none"
       d="m 645.172,132.437 -58.82799,-58.208111 -0.7857,47.036621 h -37.81584 c 0,0 -13.57128,-12.54563 -33.49876,-15.40943 l 1.26959,177.52864 z"
       id="path13106"
       sodipodi:nodetypes="ccccccc" /></g><g
     inkscape:groupmode="layer"
     id="g13120"
     inkscape:label="S"
     style="display:none"><path
       id="path13110"
       fill="#ffeb00"
       stroke="#000000"
       stroke-width="11"
       d="M 569.873,222.526 645.172,132.437 590.58,78.421 v 60.788 H 477.813 C 475.229,80.425 415.686,55.163 346.398,55.951 c -63.672,0.73 -116.808,16.763 -121.787,52.196 -4.858,20.009 17.186,53.743 150.632,47.002 106.21,-2.336 171.31,20.982 194.63,67.377 z"
       style="display:inline;fill:#ffffff" /><path
       id="path13112"
       fill="#ffeb00"
       stroke="#000000"
       stroke-width="11"
       d="m 477.08,54.891 h 33.736 c 0.727,12.327 -5.225,20.252 -8.926,24.169 -7.835,-11.114 -20.255,-21.558 -24.81,-24.169 z"
       style="display:inline;fill:#ffffff" /><path
       id="path13114"
       fill="#ffeb00"
       stroke="#000000"
       stroke-width="11"
       d="m 167.60765,239.4715 c 152.031,27.751 286.15435,15.3335 323.89635,41.1115 7.986,6.224 6.225,15.483 0.244,23.896 -21.104,25.564 -75.211,22.377 -139.187,21.343 -23.047,-39.653 -95.92635,-47.4845 -127.47535,-18.4275 -21.64337,-22.12228 -37.93871,-42.95937 -57.478,-67.923 z"
       style="display:inline;fill:#ffffff"
       sodipodi:nodetypes="cccccc" /><path
       id="path13116"
       fill="#ffeb00"
       stroke="#000000"
       stroke-width="11"
       d="M 114.359,93.997 154.56,54.921 h 38.926 c -39.715,31.789 -67.589,75.635 -79.794,123.486 l -38.896,-45.97 39.535,-38.44 z"
       style="display:inline;fill:#ffffff" /><path
       id="path13118"
       fill="#ffeb00"
       stroke="#000000"
       stroke-width="11"
       d="m 280.357,371.702 79.644,92.729 76.272,-88.783 c -38.713,9.079 -81.739,13.572 -155.916,-3.946 z"
       style="display:inline;fill:#ffffff" /></g></g><g
   aria-label="Y"
   id="g13175"
   style="font-size:460px;font-family:'Georgia Pro';-inkscape-font-specification:'Georgia Pro';display:inline;fill:#d40000;stroke:#000000;stroke-width:11"
   inkscape:label="classic colors"
   transform="translate(81.318945,140.78119)"><path
     id="path593"
     style="color:#000000;-inkscape-font-specification:'Georgia Pro';display:inline;fill:#d40000;stroke:#000000;stroke-width:11;-inkscape-stroke:none"
     d="M 359.95148,-132.33477 C 316.36856,-81.517002 272.80607,-30.681045 229.2425,20.153514 H -68.736018 C -19.091562,78.012787 30.551765,135.8738 80.195623,193.73359 30.41393,251.67876 -19.335696,309.65225 -69.292659,367.44648 l 298.480469,-0.0625 c 43.60402,50.82087 87.20847,101.64204 130.8125,152.46289 43.60922,-50.82715 87.19919,-101.67167 130.78906,-152.51562 l 298.00196,-0.0625 C 739.15158,309.43918 689.51251,251.6086 639.87336,193.77851 689.65058,135.86288 739.3956,77.918265 789.34797,20.153514 H 490.84211 C 447.2123,-30.676132 403.58131,-81.505136 359.95148,-132.33477 Z"
     inkscape:label="Star"
     sodipodi:insensitive="true" /><polygon
     id="polygon13173"
     fill="#C80000"
     stroke="#000000"
     stroke-width="11"
     points="581.744,20.154 695,129.4 360.001,519.846 25,129.4 138.287,20.154 "
     style="display:inline;fill:#d40000"
     inkscape:label="Diamond" /><path
     style="display:none;fill:#ffff00;stroke:#000000;stroke-width:11;stroke-dasharray:none"
     d="M 645.172,132.437 360.001,464.431 74.796,132.437 154.56,54.921 h 412.2705 z"
     id="path13171"
     sodipodi:nodetypes="cccccc"
     inkscape:label="inner_diamond" /><g
     inkscape:groupmode="layer"
     id="g13137"
     inkscape:label="י"
     style="display:inline"><g
       aria-label="א"
       id="text13135"
       style="font-size:460.447px;font-family:'Guttman Hatzvi';-inkscape-font-specification:'Guttman Hatzvi';display:inline;stroke-width:11.0107"><path
         id="path625"
         style="display:inline;fill:#ffff00"
         d="m 277.34602,55.28006 c 52.79792,48.80738 98.07521,94.39163 135.83186,136.75276 L 451.39498,120.66353 392.21262,54.921 Z m -43.61765,262.16278 c 8.28804,-26.70592 9.85154,-57.72432 21.51619,-111.13617 7.67412,-34.68701 13.81341,-63.54168 18.41788,-86.56403 C 261.07689,106.54316 223.51921,61.060293 215.53813,54.921 H 154.56 L 74.796,132.437 Z M 360.001,464.431 473.03599,331.08781 C 449.12681,303.28643 365.611,273.48554 365.611,273.48554 c 0,0 -29.0711,-56.66735 -55.82798,-84.51882 -6.75322,41.13326 -20.70057,110.75241 -20.70057,110.75241 l 53.85724,64.04306 c 0,0 -64.20642,-6.92049 -66.84332,2.99929 z M 645.172,132.437 566.8305,54.921 h -31.43805 c -24.55717,50.34221 -67.11441,143.40459 -86.76015,175.32892 l 57.55587,64.00213 z"
         sodipodi:nodetypes="cccccccccccccccccccccccccc" /></g><text
       xml:space="preserve"
       style="font-style:normal;font-variant:normal;font-weight:normal;font-stretch:normal;font-size:144px;font-family:'Guttman Stam';-inkscape-font-specification:'Guttman Stam';display:none;fill:#000000;stroke:#000000;stroke-width:3"
       x="173.52599"
       y="187.36362"
       id="text623"
       inkscape:label="text623"><tspan
         sodipodi:role="line"
         id="tspan621"
         x="173.52599"
         y="187.36362"></tspan></text></g><g
     aria-label="Y"
     id="g13141"
     style="font-size:460px;font-family:'Georgia Pro';-inkscape-font-specification:'Georgia Pro';display:none;fill:#d40000;stroke:#000000;stroke-width:11"
     inkscape:label="Y"><path
       style="display:inline;fill:#ffff00"
       d="m 645.172,132.437 -78.3415,-77.516 -52.17172,-10e-6 v 15.947266 c -8.53515,0.898437 -16.69596,3.668619 -24.48242,8.310546 -7.63672,4.492188 -16.54622,13.850911 -26.72851,28.076168 -10.18229,14.22526 -24.70703,37.50977 -43.57422,69.85352 -12.47753,23.41343 -36.76529,58.53762 -36.83594,74.87583 v 74.71401 c 0,8.53516 2.84505,15.27344 8.53516,20.21485 5.83984,4.94141 81.20263,-10.35215 64.69941,5.43952 z M 434.02402,373.64169 H 285.108 L 360.001,464.431 Z M 263.03201,351.55387 c -16.08973,-16.09836 57.93862,2.02272 63.62873,-1.27155 5.6901,-3.29427 8.53515,-10.4069 8.53515,-21.33789 V 251.6788 c 0,-5.09115 -12.65299,-31.29557 -37.95898,-78.61328 C 271.93092,125.59807 255.16008,97.072683 246.92441,87.489349 238.83847,77.756276 226.41008,72.215912 209.63925,70.868256 V 54.92099 L 154.56,54.921 74.796,132.437 Z M 329.51128,54.92099 v 15.947266 c -27.85156,1.347656 -41.77734,4.941406 -41.77734,10.78125 0,4.192708 23.28451,48.440754 69.85352,132.744144 48.51562,-77.86459 72.77343,-120.16602 72.77343,-126.904301 0,-4.492187 -2.69531,-8.011067 -8.08593,-10.55664 -5.24089,-2.695313 -16.69597,-4.716797 -34.36524,-6.064453 V 54.92099 Z"
       id="path13139"
       sodipodi:nodetypes="cccccsccsccccccccssscccccccccscscccc" /></g><g
     inkscape:groupmode="layer"
     id="g13149"
     inkscape:label="Torah"
     style="display:none"><path
       style="display:inline;fill:#ffff00;stroke:#000000;stroke-width:11;stroke-dasharray:none"
       d="M 645.172,132.437 360.001,464.431 74.796,132.437 154.56,54.921 h 412.2705 z"
       id="path13143"
       sodipodi:nodetypes="cccccc"
       inkscape:label="inner_diamond" /><path
       d="M 488.23313,101.23855 H 414.48056 V 82.659329 H 443.8481 V 57.296458 h 15.01749 v 25.362871 h 29.36754 z m -184.88198,0 H 229.59858 V 82.659329 h 29.36754 V 57.296458 h 14.68377 v 25.362871 h 29.70126 z M 486.56452,276.55181 H 231.26719 V 110.02453 h 255.29733 z m 1.66861,30.36869 h -29.36754 v 26.69777 H 443.8481 V 306.9205 h -29.36754 v -22.00624 h 73.75257 z m -184.88198,0 h -29.70126 v 26.69777 H 258.96612 V 306.9205 h -29.36754 v -22.00624 h 73.75257 z"
       style="font-size:313.872px;font-family:'Guttman Logo1';-inkscape-font-specification:'Guttman Logo1';display:inline;fill:#d40000;stroke:#000000;stroke-width:11.6957;stroke-dasharray:none"
       id="path13145"
       sodipodi:nodetypes="ccccccccccccccccccccccccccccccccccccccccc" /><path
       id="path13147"
       style="display:inline;fill:#d40000;stroke:#000000;stroke-width:11;stroke-dasharray:none"
       d="m 238.5536,111.87454 v 81.52867 83.24383 h 27.11898 29.47225 v -83.24383 -81.52867 h -29.47225 z m 62.72307,0 v 81.52867 83.24383 h 57.83249 56.4079 v -83.24383 -81.52867 h -56.4079 z m 121.29219,0 v 81.52867 83.24383 h 29.47432 27.59272 v -83.24383 -81.52867 h -27.59272 z"
       sodipodi:nodetypes="ccccccccccccccccccccccccccc" /></g><g
     inkscape:groupmode="layer"
     id="g13157"
     inkscape:label="J"
     style="display:none"><path
       style="display:inline;fill:#ffff00;stroke:#000000;stroke-width:11;stroke-dasharray:none"
       d="m 360.001,464.431 38.136,-44.3915 c -25.62655,8.70968 -55.0951,13.18519 -67.65713,10.00281 z"
       id="path13151"
       sodipodi:nodetypes="cccc" /><path
       style="display:inline;fill:#ffff00;stroke:#000000;stroke-width:11;stroke-dasharray:none"
       d="m 74.796,132.437 79.764,-77.516 179.77845,1.03 -0.0926,59.884 40.99712,-0.20059 v 0 c 21.75447,-20.6057 35.78694,0.2369 35.78694,0.2369 0,0 2.04934,208.36199 1.15218,210.56139 -13.71531,33.62317 -61.25512,44.41062 -95.41675,39.83745 -31.65807,-4.23802 -66.2801,-28.32523 -75.60032,-58.87565 -5.66735,-18.57683 -0.62583,-50.42648 18.15799,-55.36466 16.22656,-4.26589 37.17932,33.92919 37.17932,33.92919 l 47.43578,0.18235 v -85.27393 l -175.75902,-2.36872 -0.57147,40.97277 z"
       id="path13153"
       sodipodi:nodetypes="cccccccsaaacccccc" /><path
       style="display:inline;fill:#ffff00;stroke:#000000;stroke-width:11;stroke-dasharray:none"
       d="m 645.172,132.437 -58.82799,-58.208111 -0.7857,47.036621 h -37.81584 c 0,0 -13.57128,-12.54563 -33.49876,-15.40943 l 1.26959,177.52864 z"
       id="path13155"
       sodipodi:nodetypes="ccccccc" /></g><g
     inkscape:groupmode="layer"
     id="g13169"
     inkscape:label="S"
     style="display:none"><path
       id="path13159"
       fill="#ffeb00"
       stroke="#000000"
       stroke-width="11"
       d="M 569.873,222.526 645.172,132.437 590.58,78.421 v 60.788 H 477.813 C 475.229,80.425 415.686,55.163 346.398,55.951 c -63.672,0.73 -116.808,16.763 -121.787,52.196 -4.858,20.009 17.186,53.743 150.632,47.002 106.21,-2.336 171.31,20.982 194.63,67.377 z"
       style="display:inline;fill:#ffff00" /><path
       id="path13161"
       fill="#ffeb00"
       stroke="#000000"
       stroke-width="11"
       d="m 477.08,54.891 h 33.736 c 0.727,12.327 -5.225,20.252 -8.926,24.169 -7.835,-11.114 -20.255,-21.558 -24.81,-24.169 z"
       style="display:inline;fill:#ffff00" /><path
       id="path13163"
       fill="#ffeb00"
       stroke="#000000"
       stroke-width="11"
       d="m 167.60765,239.4715 c 152.031,27.751 286.15435,15.3335 323.89635,41.1115 7.986,6.224 6.225,15.483 0.244,23.896 -21.104,25.564 -75.211,22.377 -139.187,21.343 -23.047,-39.653 -95.92635,-47.4845 -127.47535,-18.4275 -21.64337,-22.12228 -37.93871,-42.95937 -57.478,-67.923 z"
       style="display:inline;fill:#ffff00"
       sodipodi:nodetypes="cccccc" /><path
       id="path13165"
       fill="#ffeb00"
       stroke="#000000"
       stroke-width="11"
       d="M 114.359,93.997 154.56,54.921 h 38.926 c -39.715,31.789 -67.589,75.635 -79.794,123.486 l -38.896,-45.97 39.535,-38.44 z"
       style="display:inline;fill:#ffff00" /><path
       id="path13167"
       fill="#ffeb00"
       stroke="#000000"
       stroke-width="11"
       d="m 280.357,371.702 79.644,92.729 76.272,-88.783 c -38.713,9.079 -81.739,13.572 -155.916,-3.946 z"
       style="display:inline;fill:#ffff00" /></g></g><g
   aria-label="Y"
   id="g304"
   style="font-size:460px;font-family:'Georgia Pro';-inkscape-font-specification:'Georgia Pro';display:none;fill:#d40000;stroke:#000000;stroke-width:11"
   inkscape:label="Purple"
   transform="translate(81.318945,140.78119)"><path
     id="path258"
     style="color:#000000;font-size:460px;font-family:'Georgia Pro';-inkscape-font-specification:'Georgia Pro';display:none;fill:#000080;stroke:#0000ff;stroke-width:11;-inkscape-stroke:none"
     d="M 359.95148,-132.33477 C 316.36856,-81.517002 272.80607,-30.681045 229.2425,20.153514 H -68.736018 C -19.091562,78.012787 30.551765,135.8738 80.195623,193.73359 30.41393,251.67876 -19.335696,309.65225 -69.292659,367.44648 l 298.480469,-0.0625 c 43.60402,50.82087 87.20847,101.64204 130.8125,152.46289 43.60922,-50.82715 87.19919,-101.67167 130.78906,-152.51562 l 298.00196,-0.0625 C 739.15158,309.43918 689.51251,251.6086 639.87336,193.77851 689.65058,135.86288 739.3956,77.918265 789.34797,20.153514 H 490.84211 C 447.2123,-30.676132 403.58131,-81.505136 359.95148,-132.33477 Z"
     inkscape:label="Star" /><polygon
     id="polygon260"
     fill="#C80000"
     stroke="#000000"
     stroke-width="11"
     points="581.744,20.154 695,129.4 360.001,519.846 25,129.4 138.287,20.154 "
     style="display:inline;fill:#000080;stroke:#0000ff"
     inkscape:label="Shield" /><path
     style="display:none;fill:#ffffff;stroke:#000000;stroke-width:11;stroke-dasharray:none"
     d="M 645.172,132.437 360.001,464.431 74.796,132.437 154.56,54.921 h 412.2705 z"
     id="path262"
     sodipodi:nodetypes="cccccc"
     inkscape:label="inner_diamond" /><g
     inkscape:groupmode="layer"
     id="g270"
     inkscape:label="י"
     style="display:none;fill:#9955ff"><path
       style="display:inline;fill:#9955ff;stroke:#000000;stroke-width:11;stroke-dasharray:none"
       d="M 645.172,132.437 360.001,464.431 74.796,132.437 154.56,54.921 h 412.2705 z"
       id="path264"
       sodipodi:nodetypes="cccccc"
       inkscape:label="inner_diamond" /><text
       xml:space="preserve"
       style="font-style:normal;font-variant:normal;font-weight:normal;font-stretch:normal;font-size:460px;font-family:'Guttman Stam1';-inkscape-font-specification:'Guttman Stam1';fill:#9955ff;stroke:#000000;stroke-width:11;stroke-dasharray:none"
       x="291.84464"
       y="395.83411"
       id="text268"><tspan
         sodipodi:role="line"
         id="tspan266"
         x="291.84464"
         y="395.83411"
         style="font-style:normal;font-variant:normal;font-weight:normal;font-stretch:normal;font-family:'Guttman Stam1';-inkscape-font-specification:'Guttman Stam1';fill:#9955ff">י</tspan></text></g><g
     aria-label="Y"
     id="g274"
     style="font-size:460px;font-family:'Georgia Pro';-inkscape-font-specification:'Georgia Pro';display:none;fill:#9955ff;stroke:#0000ff;stroke-width:11"
     inkscape:label="Y"><path
       style="font-size:460px;font-family:'Georgia Pro';-inkscape-font-specification:'Georgia Pro';display:inline;fill:#9955ff;stroke:#0000ff;stroke-width:11"
       d="m 645.172,132.437 -78.3415,-77.516 -52.17172,-10e-6 v 15.947266 c -8.53515,0.898437 -16.69596,3.668619 -24.48242,8.310546 -7.63672,4.492188 -16.54622,13.850911 -26.72851,28.076168 -10.18229,14.22526 -24.70703,37.50977 -43.57422,69.85352 -12.47753,23.41343 -36.76529,58.53762 -36.83594,74.87583 v 74.71401 c 0,8.53516 2.84505,15.27344 8.53516,20.21485 5.83984,4.94141 81.20263,-10.35215 64.69941,5.43952 z M 434.02402,373.64169 H 285.108 L 360.001,464.431 Z M 263.03201,351.55387 c -16.08973,-16.09836 57.93862,2.02272 63.62873,-1.27155 5.6901,-3.29427 8.53515,-10.4069 8.53515,-21.33789 V 251.6788 c 0,-5.09115 -12.65299,-31.29557 -37.95898,-78.61328 C 271.93092,125.59807 255.16008,97.072683 246.92441,87.489349 238.83847,77.756276 226.41008,72.215912 209.63925,70.868256 V 54.92099 L 154.56,54.921 74.796,132.437 Z M 329.51128,54.92099 v 15.947266 c -27.85156,1.347656 -41.77734,4.941406 -41.77734,10.78125 0,4.192708 23.28451,48.440754 69.85352,132.744144 48.51562,-77.86459 72.77343,-120.16602 72.77343,-126.904301 0,-4.492187 -2.69531,-8.011067 -8.08593,-10.55664 -5.24089,-2.695313 -16.69597,-4.716797 -34.36524,-6.064453 V 54.92099 Z"
       id="path272"
       sodipodi:nodetypes="cccccsccsccccccccssscccccccccscscccc" /></g><g
     inkscape:groupmode="layer"
     id="g282"
     inkscape:label="Torah"
     style="display:none;fill:#9955ff;stroke:#0000ff"><path
       style="display:inline;fill:#9955ff;stroke:#0000ff;stroke-width:11;stroke-dasharray:none"
       d="M 645.172,132.437 360.001,464.431 74.796,132.437 154.56,54.921 h 412.2705 z"
       id="path276"
       sodipodi:nodetypes="cccccc"
       inkscape:label="inner_diamond" /><path
       d="M 488.23313,101.23855 H 414.48056 V 82.659329 H 443.8481 V 57.296458 h 15.01749 v 25.362871 h 29.36754 z m -184.88198,0 H 229.59858 V 82.659329 h 29.36754 V 57.296458 h 14.68377 v 25.362871 h 29.70126 z M 486.56452,276.55181 H 231.26719 V 110.02453 h 255.29733 z m 1.66861,30.36869 h -29.36754 v 26.69777 H 443.8481 V 306.9205 h -29.36754 v -22.00624 h 73.75257 z m -184.88198,0 h -29.70126 v 26.69777 H 258.96612 V 306.9205 h -29.36754 v -22.00624 h 73.75257 z"
       style="font-size:313.872px;font-family:'Guttman Logo1';-inkscape-font-specification:'Guttman Logo1';display:inline;fill:#9955ff;stroke:#0000ff;stroke-width:11.6957;stroke-dasharray:none"
       id="path278"
       sodipodi:nodetypes="ccccccccccccccccccccccccccccccccccccccccc" /><path
       id="path280"
       style="display:inline;fill:#9955ff;stroke:#0000ff;stroke-width:11;stroke-dasharray:none"
       d="m 238.5536,111.87454 v 81.52867 83.24383 h 27.11898 29.47225 v -83.24383 -81.52867 h -29.47225 z m 62.72307,0 v 81.52867 83.24383 h 57.83249 56.4079 v -83.24383 -81.52867 h -56.4079 z m 121.29219,0 v 81.52867 83.24383 h 29.47432 27.59272 v -83.24383 -81.52867 h -27.59272 z"
       sodipodi:nodetypes="ccccccccccccccccccccccccccc" /></g><g
     inkscape:groupmode="layer"
     id="g290"
     inkscape:label="J"
     style="display:none;fill:#9955ff"><path
       style="display:inline;fill:#9955ff;stroke:#0000ff;stroke-width:11;stroke-dasharray:none"
       d="m 360.001,464.431 38.136,-44.3915 c -25.62655,8.70968 -55.0951,13.18519 -67.65713,10.00281 z"
       id="path284"
       sodipodi:nodetypes="cccc" /><path
       style="display:inline;fill:#9955ff;stroke:#0000ff;stroke-width:11;stroke-dasharray:none"
       d="m 74.796,132.437 79.764,-77.516 179.77845,1.03 -0.0926,59.884 40.99712,-0.20059 v 0 c 21.75447,-20.6057 35.78694,0.2369 35.78694,0.2369 0,0 2.04934,208.36199 1.15218,210.56139 -13.71531,33.62317 -61.25512,44.41062 -95.41675,39.83745 -31.65807,-4.23802 -66.2801,-28.32523 -75.60032,-58.87565 -5.66735,-18.57683 -0.62583,-50.42648 18.15799,-55.36466 16.22656,-4.26589 37.17932,33.92919 37.17932,33.92919 l 47.43578,0.18235 v -85.27393 l -175.75902,-2.36872 -0.57147,40.97277 z"
       id="path286"
       sodipodi:nodetypes="cccccccsaaacccccc" /><path
       style="display:inline;fill:#9955ff;stroke:#0000ff;stroke-width:11;stroke-dasharray:none"
       d="m 645.172,132.437 -58.82799,-58.208111 -0.7857,47.036621 h -37.81584 c 0,0 -13.57128,-12.54563 -33.49876,-15.40943 l 1.26959,177.52864 z"
       id="path288"
       sodipodi:nodetypes="ccccccc" /></g><g
     inkscape:groupmode="layer"
     id="g302"
     inkscape:label="S"
     style="display:inline;fill:#9955ff"><path
       id="path292"
       fill="#ffeb00"
       stroke="#000000"
       stroke-width="11"
       d="M 569.873,222.526 645.172,132.437 590.58,78.421 v 60.788 H 477.813 C 475.229,80.425 415.686,55.163 346.398,55.951 c -63.672,0.73 -116.808,16.763 -121.787,52.196 -4.858,20.009 17.186,53.743 150.632,47.002 106.21,-2.336 171.31,20.982 194.63,67.377 z"
       style="display:inline;fill:#9955ff;stroke:#0000ff"
       inkscape:label="top_inside" /><path
       id="path294"
       fill="#ffeb00"
       stroke="#000000"
       stroke-width="11"
       d="m 477.08,54.891 h 33.736 c 0.727,12.327 -5.225,20.252 -8.926,24.169 -7.835,-11.114 -20.255,-21.558 -24.81,-24.169 z"
       style="display:inline;fill:#9955ff;stroke:#0000ff" /><path
       id="path296"
       fill="#ffeb00"
       stroke="#000000"
       stroke-width="11"
       d="m 167.60765,239.4715 c 152.031,27.751 286.15435,15.3335 323.89635,41.1115 7.986,6.224 6.225,15.483 0.244,23.896 -21.104,25.564 -75.211,22.377 -139.187,21.343 -23.047,-39.653 -95.92635,-47.4845 -127.47535,-18.4275 -21.64337,-22.12228 -37.93871,-42.95937 -57.478,-67.923 z"
       style="display:inline;fill:#9955ff;stroke:#0000ff"
       sodipodi:nodetypes="cccccc" /><path
       id="path298"
       fill="#ffeb00"
       stroke="#000000"
       stroke-width="11"
       d="M 114.359,93.997 154.56,54.921 h 38.926 c -39.715,31.789 -67.589,75.635 -79.794,123.486 l -38.896,-45.97 39.535,-38.44 z"
       style="display:inline;fill:#9955ff;stroke:#0000ff" /><path
       id="path300"
       fill="#ffeb00"
       stroke="#000000"
       stroke-width="11"
       d="m 280.357,371.702 79.644,92.729 76.272,-88.783 c -38.713,9.079 -81.739,13.572 -155.916,-3.946 z"
       style="display:inline;fill:#9955ff;stroke:#0000ff" /></g></g></svg>
